<svg width="175" height="250" viewBox="0 0 175 250" fill="none" xmlns="http://www.w3.org/2000/svg">
<path d="M81.1499 169.29C83.3999 189.1 82.2899 209.24 77.7799 228.66C76.5199 234.11 74.9799 239.5 73.2099 244.81C73.0099 245.4 73.3299 246.32 73.9299 246.58C76.2599 247.58 78.5899 248.58 80.9199 249.58C81.6999 249.92 82.5899 249.81 83.0599 249.02C83.4499 248.36 83.27 247.21 82.5 246.88C80.17 245.88 77.84 244.88 75.51 243.88C75.75 244.47 75.9899 245.06 76.2299 245.65C82.6199 226.57 85.7299 206.4 85.3999 186.28C85.3099 180.6 84.9299 174.94 84.2899 169.3C84.0699 167.32 80.9299 167.3 81.1599 169.3" fill="#070303"/>
<path d="M115.76 160.81C131.78 173.4 145.18 189.16 155.03 207C157.8 212.02 160.29 217.2 162.46 222.51C162.84 223.42 163.8 224.01 164.76 223.44C167.38 221.9 169.99 220.36 172.61 218.82C174.34 217.8 172.77 215.09 171.03 216.12C168.41 217.66 165.8 219.2 163.18 220.74C163.95 221.05 164.71 221.36 165.48 221.67C157.61 202.45 145.92 184.87 131.17 170.24C127 166.1 122.59 162.22 117.98 158.59C116.41 157.36 114.18 159.56 115.77 160.8" fill="#070303"/>
<path d="M174.74 87.37C174.74 135.62 135.63 174.74 87.37 174.74C39.11 174.74 0 135.62 0 87.37C0 39.12 39.12 0 87.37 0C135.62 0 174.74 39.12 174.74 87.37Z" fill="#3E8BCA"/>
<path d="M135.82 110.15C135.04 108.87 133.51 107.98 131.99 108.15C131.1 108.25 130.34 108.57 129.64 109.13C129.05 109.61 128.67 110.25 128.4 110.96C128.27 111.32 128.37 111.84 128.56 112.17C128.75 112.49 129.12 112.8 129.49 112.89C129.89 112.98 130.34 112.96 130.7 112.73C131.06 112.5 131.27 112.2 131.42 111.8C131.43 111.76 131.45 111.72 131.47 111.68C131.42 111.8 131.37 111.93 131.31 112.05C131.4 111.85 131.51 111.67 131.64 111.49C131.56 111.6 131.48 111.7 131.4 111.81C131.54 111.64 131.69 111.49 131.86 111.35C131.75 111.43 131.65 111.51 131.54 111.59C131.73 111.45 131.94 111.33 132.16 111.23C132.04 111.28 131.91 111.33 131.79 111.39C131.99 111.31 132.2 111.25 132.42 111.23C132.28 111.25 132.14 111.27 132 111.29C132.2 111.27 132.4 111.27 132.6 111.29C132.46 111.27 132.32 111.25 132.18 111.23C132.42 111.26 132.66 111.33 132.88 111.42C132.76 111.37 132.63 111.32 132.51 111.26C132.71 111.35 132.9 111.46 133.08 111.6C132.97 111.52 132.87 111.44 132.76 111.36C132.93 111.5 133.09 111.65 133.23 111.83C133.15 111.73 133.07 111.62 132.99 111.51C133.04 111.58 133.09 111.66 133.14 111.73C133.57 112.43 134.56 112.75 135.28 112.29C135.98 111.84 136.3 110.9 135.84 110.15" fill="#070303"/>
<path d="M124.51 110.63C123.9 109.24 122.27 108.27 120.76 108.35C120.01 108.39 119.26 108.61 118.64 109.06C117.9 109.6 117.39 110.26 117.07 111.13C116.93 111.49 117.04 112.02 117.23 112.34C117.42 112.66 117.79 112.97 118.16 113.06C118.56 113.15 119.01 113.13 119.37 112.9C119.73 112.67 119.94 112.37 120.09 111.97C120.1 111.93 120.12 111.89 120.14 111.85C120.09 111.97 120.03 112.1 119.98 112.22C120.06 112.04 120.16 111.87 120.27 111.71C120.19 111.82 120.11 111.92 120.03 112.03C120.17 111.86 120.32 111.7 120.49 111.57C120.38 111.65 120.28 111.73 120.17 111.81C120.36 111.66 120.57 111.54 120.79 111.45C120.67 111.5 120.54 111.55 120.42 111.61C120.6 111.54 120.79 111.49 120.99 111.46C120.85 111.48 120.71 111.5 120.57 111.52C120.79 111.49 121.01 111.49 121.23 111.52C121.09 111.5 120.95 111.48 120.81 111.46C121.01 111.49 121.2 111.55 121.39 111.62C121.27 111.57 121.14 111.51 121.02 111.46C121.23 111.55 121.42 111.66 121.6 111.79C121.5 111.71 121.39 111.63 121.28 111.54C121.46 111.68 121.61 111.83 121.75 112.01C121.67 111.9 121.59 111.8 121.51 111.69C121.63 111.85 121.73 112.02 121.81 112.21C121.96 112.55 122.41 112.84 122.74 112.93C123.11 113.03 123.61 112.99 123.95 112.77C124.28 112.55 124.58 112.23 124.67 111.84C124.69 111.7 124.71 111.56 124.73 111.42C124.73 111.14 124.66 110.87 124.52 110.63" fill="#070303"/>
<path d="M147.3 114.78C141.62 118.49 134.43 119.69 127.76 119.82C120.79 119.96 113.31 118.98 107.14 115.53C105.38 114.55 103.8 117.25 105.56 118.23C112.21 121.95 120.24 123.1 127.76 122.94C134.95 122.79 142.75 121.47 148.88 117.47C150.56 116.37 148.99 113.66 147.3 114.77" fill="#070303"/>
<path d="M116.24 121.4V129.74C116.24 130.82 116.19 131.92 116.27 133C116.46 135.61 117.54 138.08 119.37 139.96C123.06 143.75 129.25 144.38 133.56 141.24C135.64 139.72 137.2 137.55 137.85 135.04C138.2 133.66 138.2 132.27 138.2 130.86V121.41C138.2 119.4 135.07 119.39 135.07 121.41V128.93C135.07 131.83 135.32 134.73 133.38 137.17C130.7 140.55 125.6 141.15 122.26 138.39C120.62 137.03 119.52 135.01 119.39 132.87C119.34 131.95 119.37 131.01 119.37 130.09V121.41C119.37 119.4 116.24 119.39 116.24 121.41" fill="#070303"/>
<path d="M128.78 131.56V121.4C128.78 120.58 128.06 119.8 127.21 119.83C126.36 119.87 125.65 120.52 125.65 121.4V131.56C125.65 132.38 126.37 133.16 127.21 133.13C128.06 133.09 128.78 132.44 128.78 131.56Z" fill="#070303"/>
</svg>
