<svg width="218" height="215" viewBox="0 0 218 215" fill="none" xmlns="http://www.w3.org/2000/svg">
<path d="M100.307 149.53C98.9967 165.18 99.0068 180.98 98.8668 196.67C98.8168 202.13 98.7868 207.6 98.7868 213.06C99.3068 212.54 99.8268 212.02 100.347 211.5C98.6168 211.31 96.8768 211.12 95.1468 210.93C93.1468 210.71 93.1668 213.84 95.1468 214.06C96.8768 214.25 98.6168 214.44 100.347 214.63C101.187 214.72 101.907 213.84 101.917 213.06C101.927 195.21 102.057 177.35 102.837 159.51C102.987 156.18 103.157 152.85 103.437 149.52C103.607 147.51 100.477 147.52 100.307 149.52" fill="#070303"/>
<path d="M112.947 148.86C111.637 164.51 111.647 180.31 111.507 196C111.457 201.46 111.427 206.93 111.427 212.39C111.947 211.87 112.467 211.35 112.987 210.83C111.257 210.64 109.517 210.45 107.787 210.26C105.787 210.04 105.807 213.17 107.787 213.39C109.517 213.58 111.257 213.77 112.987 213.96C113.827 214.05 114.547 213.17 114.557 212.39C114.567 194.54 114.697 176.68 115.477 158.84C115.627 155.51 115.797 152.18 116.077 148.85C116.247 146.84 113.117 146.85 112.947 148.85" fill="#070303"/>
<path d="M58.1871 0.0300769C88.9271 1.01008 112.727 36.8901 111.357 80.1701C109.977 123.45 83.9471 157.75 53.2171 156.77C22.4871 155.8 -1.32292 119.91 0.0570822 76.6301C1.42708 33.3401 27.4571 -0.949918 58.1971 0.0200823" fill="#41A447"/>
<path d="M111.207 0.0300769C141.947 1.01008 165.747 36.8901 164.377 80.1701C162.997 123.45 136.967 157.75 106.237 156.77C75.5066 155.8 51.6966 119.91 53.0766 76.6301C54.4466 33.3401 80.4766 -0.949918 111.217 0.0200823" fill="#41A447"/>
<path d="M164.227 0.0300769C194.967 1.01008 218.767 36.8901 217.397 80.1701C216.017 123.45 189.987 157.75 159.257 156.77C128.527 155.8 104.717 119.91 106.097 76.6301C107.467 33.3401 133.497 -0.949918 164.237 0.0200823" fill="#41A447"/>
<path d="M75.5976 99.11C75.2176 107.11 68.5876 113.62 60.5676 113.73C52.5576 113.84 45.7076 107.56 45.1176 99.5601C44.9676 97.5601 41.8376 97.5501 41.9876 99.5601C42.5276 106.82 47.2277 113.33 54.1277 115.81C61.2577 118.38 69.6676 116.17 74.4476 110.27C77.0376 107.08 78.5376 103.23 78.7376 99.12C78.8376 97.11 75.7076 97.11 75.6076 99.12" fill="#070303"/>
<path d="M68.9572 94.74C68.1772 93.46 66.6473 92.57 65.1273 92.74C64.2273 92.84 63.4773 93.1601 62.7773 93.7201C62.1873 94.2001 61.8073 94.84 61.5373 95.55C61.4073 95.91 61.5072 96.43 61.6972 96.76C61.8872 97.08 62.2573 97.39 62.6373 97.48C63.0373 97.57 63.4872 97.55 63.8472 97.32C64.2072 97.09 64.4172 96.79 64.5672 96.39C64.5772 96.35 64.5973 96.31 64.6173 96.27C64.5673 96.39 64.5172 96.52 64.4572 96.64C64.5472 96.44 64.6573 96.26 64.7873 96.08C64.7073 96.19 64.6273 96.29 64.5473 96.4C64.6873 96.23 64.8373 96.08 65.0073 95.94C64.8973 96.02 64.7972 96.1 64.6872 96.18C64.8772 96.04 65.0872 95.92 65.3072 95.82C65.1872 95.87 65.0572 95.92 64.9372 95.98C65.1372 95.9 65.3472 95.84 65.5672 95.82C65.4272 95.84 65.2873 95.86 65.1473 95.88C65.3473 95.86 65.5473 95.86 65.7373 95.88C65.5973 95.86 65.4572 95.84 65.3172 95.82C65.5572 95.85 65.7973 95.92 66.0173 96.01C65.8973 95.96 65.7673 95.91 65.6473 95.85C65.8473 95.94 66.0372 96.05 66.2172 96.19C66.1072 96.11 66.0073 96.03 65.8973 95.95C66.0773 96.09 66.2273 96.24 66.3673 96.42C66.2873 96.31 66.2073 96.21 66.1273 96.1C66.1773 96.17 66.2273 96.25 66.2773 96.32C66.7073 97.02 67.6973 97.35 68.4173 96.88C69.1173 96.43 69.4372 95.49 68.9772 94.74" fill="#070303"/>
<path d="M57.6468 95.2101C57.0368 93.8201 55.4068 92.8501 53.8968 92.9301C53.1468 92.9701 52.3968 93.1901 51.7768 93.6401C51.0368 94.1801 50.5267 94.8401 50.2067 95.7101C50.0667 96.0701 50.1768 96.6001 50.3668 96.9201C50.5568 97.2401 50.9267 97.5501 51.3067 97.6401C51.7067 97.7301 52.1568 97.7101 52.5068 97.4801C52.8668 97.2501 53.0768 96.9501 53.2268 96.5501C53.2468 96.5101 53.2568 96.4701 53.2768 96.4301C53.2268 96.5501 53.1668 96.6801 53.1168 96.8001C53.1968 96.6201 53.2968 96.4501 53.4068 96.2901C53.3268 96.4001 53.2468 96.5001 53.1668 96.6101C53.3068 96.4401 53.4568 96.2801 53.6268 96.1501C53.5268 96.2301 53.4167 96.3101 53.3067 96.3901C53.4967 96.2401 53.7067 96.1202 53.9267 96.0302C53.8067 96.0802 53.6767 96.1301 53.5567 96.1901C53.7367 96.1201 53.9268 96.0702 54.1168 96.0302C53.9768 96.0502 53.8367 96.0701 53.6967 96.0901C53.9167 96.0601 54.1368 96.0601 54.3568 96.0901C54.2168 96.0701 54.0767 96.0502 53.9367 96.0302C54.1367 96.0602 54.3268 96.1201 54.5168 96.1901C54.3968 96.1401 54.2668 96.0802 54.1468 96.0302C54.3568 96.1202 54.5468 96.2301 54.7268 96.3601C54.6268 96.2801 54.5168 96.2001 54.4068 96.1101C54.5868 96.2501 54.7368 96.4001 54.8768 96.5801C54.7968 96.4701 54.7168 96.3701 54.6368 96.2601C54.7568 96.4201 54.8567 96.5902 54.9367 96.7802C55.0867 97.1202 55.5368 97.4102 55.8768 97.5002C56.2568 97.6002 56.7467 97.5601 57.0867 97.3401C57.4167 97.1201 57.7167 96.8001 57.8067 96.4101C57.8267 96.2701 57.8468 96.1301 57.8668 95.9901C57.8668 95.7101 57.7968 95.4401 57.6568 95.2001" fill="#070303"/>
</svg>
