<svg width="213" height="324" viewBox="0 0 213 324" fill="none" xmlns="http://www.w3.org/2000/svg"><path d="M123.5 319.898c-2.357.29-4.714.58-7.072.86.52.521 1.039 1.041 1.569 1.562a1386.513 1386.513 0 002.127-83.774 1378.85 1378.85 0 00-2.936-83.254 1392.243 1392.243 0 00-3.886-46.946c-.199-1.991-3.325-2.011-3.126 0a1375.895 1375.895 0 015.793 83.594 1378.864 1378.864 0 01.719 83.304 1394.99 1394.99 0 01-1.818 47.076c-.039.77.76 1.661 1.558 1.571 2.358-.29 4.715-.581 7.072-.861 1.967-.24 1.997-3.372 0-3.132zm-41.707 3.133c2.357.29 4.714.58 7.071.86.84.1 1.568-.8 1.558-1.571-.24-27.481.12-54.972 1.089-82.433a1867.747 1867.747 0 014.734-82.553 1886.702 1886.702 0 014.255-46.245c.209-2.002-2.917-1.992-3.126 0a1882.705 1882.705 0 00-6.772 82.163 1868.848 1868.848 0 00-3.146 82.623c-.25 15.481-.3 30.953-.16 46.435.52-.52 1.039-1.041 1.568-1.561-2.357-.29-4.714-.581-7.07-.861-1.988-.24-1.978 2.892 0 3.133" fill="#070303"/><path d="M110.067.024c20.733.66 36.783 24.909 35.854 54.151-.929 29.242-18.486 52.42-39.21 51.76-20.724-.661-36.783-24.91-35.855-54.152.93-29.252 18.477-52.43 39.211-51.77" fill="#F0AAA5"/><path d="M34.343 28.665c15.131-14.22 43.585-8.446 63.57 12.89 19.984 21.337 23.919 50.169 8.799 64.379-15.121 14.221-43.585 8.447-63.57-12.89-19.984-21.336-23.93-50.168-8.809-64.379" fill="#F0AAA5"/><path d="M1.005 102.582c.66-20.776 24.858-36.858 54.041-35.928 29.183.93 52.314 18.524 51.655 39.29-.659 20.766-24.858 36.858-54.041 35.928-29.193-.931-52.324-18.515-51.665-39.29" fill="#F0AAA5"/><path d="M29.599 178.46c-14.193-15.152-8.43-43.673 12.863-63.699 21.293-20.025 50.067-23.968 64.249-8.816 14.192 15.151 8.429 43.673-12.864 63.688-21.293 20.025-50.066 23.978-64.258 8.827" fill="#F0AAA5"/><path d="M103.355 211.855c-20.733-.66-36.783-24.909-35.854-54.151.929-29.242 18.486-52.42 39.21-51.76 20.724.661 36.783 24.909 35.855 54.152-.929 29.252-18.477 52.43-39.211 51.769" fill="#F0AAA5"/><path d="M179.089 183.213c-15.131 14.221-43.584 8.447-63.569-12.89-19.985-21.336-23.92-50.168-8.799-64.379 15.121-14.22 43.585-8.446 63.559 12.89 19.985 21.336 23.93 50.168 8.809 64.379z" fill="#F0AAA5"/><path d="M212.417 109.297c-.659 20.776-24.859 36.858-54.042 35.928-29.183-.931-52.313-18.525-51.654-39.29.659-20.766 24.858-36.859 54.041-35.928 29.193.93 52.324 18.514 51.665 39.29" fill="#F0AAA5"/><path d="M183.833 33.42c14.192 15.161 8.429 43.673-12.864 63.698-21.293 20.026-50.066 23.969-64.258 8.817-14.192-15.151-8.43-43.673 12.864-63.699 21.293-20.025 50.066-23.978 64.258-8.826" fill="#F0AAA5"/><path d="M121.921 129.662c-.379 8.007-7.001 14.522-15.011 14.632-8 .11-14.84-6.175-15.43-14.181-.15-2.002-3.276-2.012-3.126 0 .54 7.265 5.233 13.78 12.124 16.262 7.121 2.572 15.521.36 20.295-5.544 2.586-3.192 4.095-7.045 4.284-11.159.1-2.011-3.026-2.011-3.126 0" fill="#070303"/><path d="M103.994 125.76c-.609-1.391-2.237-2.362-3.745-2.272-.749.04-1.498.26-2.117.71a4.365 4.365 0 00-1.568 2.072c-.14.36-.03.881.16 1.211.19.32.559.63.928.721.4.09.85.07 1.209-.161.36-.23.57-.53.719-.93.01-.04.03-.08.05-.12-.05.12-.11.25-.16.37.08-.18.18-.35.29-.51-.08.1-.16.21-.24.32.14-.17.29-.33.46-.461-.11.08-.21.161-.32.241.19-.151.399-.271.619-.361-.12.05-.25.11-.37.16.18-.07.37-.12.57-.15l-.42.06c.22-.03.44-.03.66 0l-.42-.06c.2.03.39.09.579.16-.119-.05-.249-.11-.369-.16.21.09.399.2.579.331a9.82 9.82 0 00-.319-.241c.179.141.329.291.469.471l-.24-.32c.12.16.22.33.3.52.15.34.599.63.929.72.369.101.869.061 1.208-.16.33-.22.629-.54.719-.93l.06-.421c0-.28-.07-.55-.21-.79m6.103 1.921l3.955-.48c.189-.02.379-.04.559-.07.429-.05.789-.14 1.109-.461.269-.27.479-.72.459-1.11-.02-.401-.15-.821-.459-1.111-.29-.26-.7-.511-1.109-.461l-3.955.481c-.19.02-.38.04-.559.07-.43.05-.789.14-1.109.46-.27.27-.479.721-.459 1.111.02.4.15.831.459 1.111.28.26.699.51 1.109.46z" fill="#070303"/></svg>