<svg width="332" height="236" viewBox="0 0 332 236" fill="none" xmlns="http://www.w3.org/2000/svg">
<path d="M0 197.11C0 200.05 0.00989746 202.98 0.0198975 205.92C0.0198975 206.68 0.739966 207.59 1.58997 207.49C28.06 204.06 54.68 201.75 81.36 200.61C88.93 200.28 96.51 200.05 104.09 199.91C106.1 199.87 106.11 196.74 104.09 196.78C77.4 197.28 50.7299 198.91 24.1799 201.7C16.6399 202.49 9.10998 203.38 1.59998 204.36C2.11998 204.88 2.63991 205.4 3.15991 205.92C3.15991 202.98 3.14989 200.05 3.13989 197.11C3.13989 195.1 0.0098877 195.09 0.0098877 197.11" fill="#070303"/>
<path d="M29.4298 219.73L35.0498 221C35.6598 221.14 36.5398 220.93 36.8198 220.28L54.4698 178.99C55.9698 175.47 57.4298 171.93 58.9798 168.44C59.1298 168.1 59.3799 167.28 59.7499 167.09C60.2799 166.82 61.2498 167.47 61.7098 167.68C63.3898 168.46 65.0699 169.24 66.7398 170.03C73.2898 173.13 79.7898 176.33 86.2398 179.64C93.5499 183.39 100.79 187.27 107.95 191.28C109.71 192.26 111.29 189.56 109.53 188.58C96.1798 181.11 82.5799 174.09 68.7499 167.53C67.1499 166.77 65.5498 166.02 63.9398 165.27C62.3698 164.54 60.6198 163.48 58.8298 164.07C57.5298 164.49 56.7898 165.67 56.2698 166.85C55.4598 168.67 54.6998 170.52 53.9198 172.36C50.7798 179.7 47.6497 187.04 44.5097 194.38C41.0497 202.48 37.5799 210.59 34.1199 218.69C34.7099 218.45 35.2998 218.21 35.8898 217.97C34.0198 217.55 32.1398 217.12 30.2698 216.7C28.3098 216.26 27.4698 219.27 29.4398 219.72" fill="#070303"/>
<path d="M150.25 235.97C119.98 235.97 95.4502 211.43 95.4502 181.17C95.4502 150.91 119.99 126.37 150.25 126.37C189.71 126.37 221.82 94.26 221.82 54.8C221.82 24.53 246.36 0 276.62 0C306.88 0 331.42 24.54 331.42 54.8C331.42 154.7 250.14 235.98 150.24 235.98" fill="#E42726"/>
<path d="M264.36 76.85C263.98 84.85 257.35 91.36 249.33 91.47C241.32 91.58 234.47 85.3 233.88 77.3C233.73 75.3 230.6 75.29 230.75 77.3C231.29 84.56 235.99 91.07 242.89 93.55C250.02 96.12 258.43 93.91 263.21 88.01C265.8 84.82 267.3 80.97 267.5 76.86C267.6 74.85 264.47 74.85 264.37 76.86" fill="#070303"/>
<path d="M243.01 70.6702C243 71.6902 242.98 72.7102 242.97 73.7302C242.97 73.8802 242.97 74.0202 242.97 74.1702C242.97 74.5702 243.15 75.0002 243.43 75.2802C243.71 75.5602 244.15 75.7602 244.54 75.7402C245.4 75.7002 246.09 75.0502 246.11 74.1802C246.12 73.1602 246.13 72.1402 246.15 71.1202C246.15 70.9702 246.15 70.8302 246.15 70.6802C246.15 70.2802 245.97 69.8502 245.69 69.5702C245.42 69.3002 244.97 69.0902 244.58 69.1102C243.72 69.1502 243.03 69.8002 243.02 70.6802" fill="#070303"/>
<path d="M252.13 70.6702C252.12 71.6902 252.1 72.7102 252.09 73.7302C252.09 73.8802 252.09 74.0202 252.09 74.1702C252.09 74.5702 252.27 75.0002 252.55 75.2802C252.82 75.5502 253.27 75.7602 253.66 75.7402C254.52 75.7002 255.21 75.0502 255.23 74.1802C255.24 73.1602 255.25 72.1402 255.27 71.1202C255.27 70.9702 255.27 70.8302 255.27 70.6802C255.27 70.2802 255.09 69.8502 254.81 69.5702C254.54 69.3002 254.09 69.0902 253.7 69.1102C252.84 69.1502 252.15 69.8002 252.14 70.6802" fill="#070303"/>
</svg>
