<svg width="135" height="434" viewBox="0 0 135 434" fill="none" xmlns="http://www.w3.org/2000/svg">
<path d="M43.2502 432.97C46.2502 432.38 49.2503 431.78 52.2403 431.19C52.8903 431.06 53.4102 430.33 53.3902 429.68C52.8502 410.86 52.3102 392.05 51.7802 373.23L51.3202 357.25C51.2602 355.24 48.1302 355.23 48.1902 357.25C48.7302 376.07 49.2702 394.88 49.8002 413.69L50.2602 429.67C50.6402 429.17 51.0302 428.66 51.4102 428.16C48.4102 428.75 45.4102 429.35 42.4202 429.94C40.4502 430.33 41.2802 433.35 43.2502 432.96" fill="#070303"/>
<path d="M86.37 430.34C83.23 429.84 80.1 429.34 76.96 428.85C77.32 429.49 77.69 430.13 78.05 430.77C80.77 411.5 83.5 392.22 86.22 372.94C87 367.44 87.77 361.95 88.55 356.45C88.67 355.61 88.34 354.78 87.46 354.53C86.73 354.32 85.65 354.79 85.53 355.62C82.81 374.9 80.08 394.17 77.36 413.45C76.58 418.95 75.81 424.44 75.03 429.94C74.92 430.7 75.21 431.72 76.12 431.86C79.26 432.36 82.39 432.86 85.53 433.36C87.5 433.67 88.35 430.66 86.36 430.34" fill="#070303"/>
<path d="M67.3401 134.68C30.1501 134.68 0 104.53 0 67.34C0 30.15 30.1501 0 67.3401 0C104.53 0 134.68 30.15 134.68 67.34C134.68 104.53 104.53 134.68 67.3401 134.68Z" fill="#F9BE14"/>
<path d="M67.3401 212.67C30.1501 212.67 0 182.52 0 145.33C0 108.14 30.1501 77.99 67.3401 77.99C104.53 77.99 134.68 108.14 134.68 145.33C134.68 182.52 104.53 212.67 67.3401 212.67Z" fill="#F9BE14"/>
<path d="M67.3401 290.66C30.1501 290.66 0 260.51 0 223.32C0 186.13 30.1501 155.98 67.3401 155.98C104.53 155.98 134.68 186.13 134.68 223.32C134.68 260.51 104.53 290.66 67.3401 290.66Z" fill="#F9BE14"/>
<path d="M67.3401 368.65C30.1501 368.65 0 338.5 0 301.31C0 264.12 30.1501 233.97 67.3401 233.97C104.53 233.97 134.68 264.12 134.68 301.31C134.68 338.5 104.53 368.65 67.3401 368.65Z" fill="#F9BE14"/>
<path d="M65.7802 281.53C65.4002 289.53 58.7702 296.04 50.7502 296.15C42.7402 296.26 35.8903 289.98 35.3003 281.98C35.1503 279.98 32.0203 279.97 32.1703 281.98C32.7103 289.24 37.4103 295.75 44.3103 298.23C51.4403 300.8 59.8502 298.59 64.6302 292.69C67.2202 289.5 68.7203 285.65 68.9203 281.54C69.0203 279.53 65.8903 279.53 65.7903 281.54" fill="#070303"/>
<path d="M47.8401 279.78C47.8401 281.36 46.5601 282.64 44.9801 282.64C43.4001 282.64 42.1201 281.36 42.1201 279.78C42.1201 278.2 43.4001 276.92 44.9801 276.92C46.5601 276.92 47.8401 278.2 47.8401 279.78Z" fill="#070303"/>
<path d="M58.9602 279.78C58.9602 281.36 57.6802 282.64 56.1002 282.64C54.5202 282.64 53.2402 281.36 53.2402 279.78C53.2402 278.2 54.5202 276.92 56.1002 276.92C57.6802 276.92 58.9602 278.2 58.9602 279.78Z" fill="#070303"/>
</svg>
