<svg width="16" height="16" viewBox="0 0 16 16" fill="none" xmlns="http://www.w3.org/2000/svg">
<path fill-rule="evenodd" clip-rule="evenodd" d="M8 2C6.3704 2 6.1664 2.0068 5.5264 2.036C4.8876 2.0652 4.4512 2.1668 4.0696 2.3152C3.6696 2.4656 3.3068 2.7016 3.0068 3.0072C2.70169 3.30685 2.46554 3.6694 2.3148 4.0696C2.1672 4.4512 2.0652 4.888 2.036 5.5268C2.0072 6.1664 2 6.37 2 8C2 9.63 2.0068 9.8336 2.036 10.4736C2.0652 11.1124 2.1668 11.5488 2.3152 11.9304C2.4656 12.3304 2.7016 12.6932 3.0072 12.9932C3.30686 13.2983 3.6694 13.5344 4.0696 13.6852C4.4512 13.8332 4.8876 13.9348 5.5264 13.964C6.1664 13.9932 6.3704 14 8 14C9.6296 14 9.8336 13.9932 10.4736 13.964C11.1124 13.9348 11.5488 13.8332 11.9304 13.6848C12.3304 13.5344 12.6932 13.2984 12.9932 12.9928C13.2983 12.6931 13.5345 12.3306 13.6852 11.9304C13.8332 11.5488 13.9348 11.1124 13.964 10.4736C13.9932 9.8336 14 9.6296 14 8C14 6.3704 13.9932 6.1664 13.964 5.5264C13.9348 4.8876 13.8332 4.4512 13.6848 4.0696C13.5342 3.66923 13.298 3.30653 12.9928 3.0068C12.6931 2.70169 12.3306 2.46554 11.9304 2.3148C11.5488 2.1672 11.112 2.0652 10.4732 2.036C9.8336 2.0072 9.63 2 8 2ZM8 3.0812C9.602 3.0812 9.792 3.0872 10.4248 3.116C11.0096 3.1428 11.3272 3.24 11.5388 3.3228C11.8188 3.4312 12.0188 3.5616 12.2288 3.7712C12.4388 3.9812 12.5688 4.1812 12.6772 4.4612C12.7596 4.6728 12.8572 4.9904 12.884 5.5752C12.9128 6.208 12.9188 6.398 12.9188 8C12.9188 9.602 12.9128 9.792 12.884 10.4248C12.8572 11.0096 12.76 11.3272 12.6772 11.5388C12.5812 11.7994 12.428 12.0352 12.2288 12.2288C12.0352 12.428 11.7994 12.5812 11.5388 12.6772C11.3272 12.7596 11.0096 12.8572 10.4248 12.884C9.792 12.9128 9.6024 12.9188 8 12.9188C6.3976 12.9188 6.208 12.9128 5.5752 12.884C4.9904 12.8572 4.6728 12.76 4.4612 12.6772C4.20058 12.5812 3.9648 12.428 3.7712 12.2288C3.57207 12.0352 3.41885 11.7994 3.3228 11.5388C3.2404 11.3272 3.1428 11.0096 3.116 10.4248C3.0872 9.792 3.0812 9.602 3.0812 8C3.0812 6.398 3.0872 6.208 3.116 5.5752C3.1428 4.9904 3.24 4.6728 3.3228 4.4612C3.4312 4.1812 3.5616 3.9812 3.7712 3.7712C3.96478 3.57202 4.20056 3.41879 4.4612 3.3228C4.6728 3.2404 4.9904 3.1428 5.5752 3.116C6.208 3.0872 6.398 3.0812 8 3.0812Z" fill="#070303"/>
<path fill-rule="evenodd" clip-rule="evenodd" d="M8.00001 10.0021C7.73711 10.0021 7.47678 9.95032 7.23388 9.84971C6.99099 9.7491 6.77029 9.60163 6.58439 9.41573C6.39848 9.22983 6.25102 9.00913 6.15041 8.76624C6.0498 8.52334 5.99802 8.26301 5.99802 8.0001C5.99802 7.7372 6.0498 7.47686 6.15041 7.23397C6.25102 6.99108 6.39848 6.77038 6.58439 6.58448C6.77029 6.39857 6.99099 6.25111 7.23388 6.1505C7.47678 6.04989 7.73711 5.9981 8.00001 5.9981C8.53098 5.9981 9.04019 6.20903 9.41564 6.58448C9.79109 6.95992 10.002 7.46914 10.002 8.0001C10.002 8.53107 9.79109 9.04028 9.41564 9.41573C9.04019 9.79118 8.53098 10.0021 8.00001 10.0021ZM8.00001 4.9161C7.18209 4.9161 6.39766 5.24102 5.8193 5.81939C5.24094 6.39775 4.91602 7.18218 4.91602 8.0001C4.91602 8.81803 5.24094 9.60246 5.8193 10.1808C6.39766 10.7592 7.18209 11.0841 8.00001 11.0841C8.81794 11.0841 9.60237 10.7592 10.1807 10.1808C10.7591 9.60246 11.084 8.81803 11.084 8.0001C11.084 7.18218 10.7591 6.39775 10.1807 5.81939C9.60237 5.24102 8.81794 4.9161 8.00001 4.9161ZM11.9812 4.8601C11.9812 5.05345 11.9044 5.23887 11.7677 5.37558C11.631 5.5123 11.4456 5.5891 11.2522 5.5891C11.0589 5.5891 10.8734 5.5123 10.7367 5.37558C10.6 5.23887 10.5232 5.05345 10.5232 4.8601C10.5232 4.66676 10.6 4.48134 10.7367 4.34462C10.8734 4.20791 11.0589 4.1311 11.2522 4.1311C11.4456 4.1311 11.631 4.20791 11.7677 4.34462C11.9044 4.48134 11.9812 4.66676 11.9812 4.8601Z" fill="#070303"/>
</svg>
