<svg width="1512" height="158" viewBox="0 0 1512 158" fill="none" xmlns="http://www.w3.org/2000/svg">
<path fill-rule="evenodd" clip-rule="evenodd" d="M1116.71 57.6068C1167.69 21.3322 1230.04 -1.65812e-05 1297.38 -1.36379e-05C1469.69 -6.10609e-06 1609.38 139.691 1609.38 312C1609.38 484.309 1469.69 624 1297.38 624C1230.04 624 1167.69 602.668 1116.71 566.393C1065.72 602.668 1003.37 624 936.036 624C868.701 624 806.347 602.668 755.364 566.394C704.381 602.668 642.027 624 574.693 624C507.358 624 445.004 602.668 394.021 566.393C343.038 602.668 280.684 624 213.349 624C41.0403 624 -98.6507 484.309 -98.6506 312C-98.6506 139.691 41.0403 -2.11698e-05 213.349 -1.36379e-05C280.684 -1.06946e-05 343.038 21.3321 394.021 57.6067C445.004 21.3321 507.358 -1.65812e-05 574.693 -1.36379e-05C642.027 -1.06947e-05 704.381 21.3321 755.364 57.6065C806.347 21.3321 868.701 -1.65812e-05 936.036 -1.36379e-05C1003.37 -1.06946e-05 1065.72 21.3322 1116.71 57.6068Z" fill="#F0AAA5"/>
</svg>
