<svg width="124" height="64" viewBox="0 0 124 64" fill="none" xmlns="http://www.w3.org/2000/svg">
<g clip-path="url(#clip0_12_852)">
<path d="M21.1299 23.2853C21.1477 24.8355 21.1049 26.5137 21.0942 28.064C21.0942 28.2631 21.0514 28.4693 21.0549 28.6648C21.0549 28.7217 21.0371 28.8106 21.0121 28.9066C20.9479 29.1413 20.7373 29.3084 20.4947 29.3084C19.5668 29.312 17.7968 29.3155 17.2079 29.3084C16.8618 29.3013 16.2908 29.3013 15.9446 29.28C15.5378 29.2551 15.3736 29.0951 15.3237 28.6968C15.313 28.5937 15.313 28.4835 15.313 28.3804C15.313 27.5733 15.3023 26.6382 15.313 25.8275C15.313 25.5822 15.3594 18.5102 15.4022 12.064C14.0318 14.9084 10.9985 21.2088 10.8522 21.5253C10.7273 21.7955 10.4418 22.2542 10.1634 22.1511C10.0706 22.1191 9.80298 21.7848 9.73874 21.7066C9.68164 21.6355 9.65309 21.5431 9.62454 21.4542C9.12493 19.8577 5.84177 12.2346 5.84177 12.2346C5.84177 12.2346 5.84177 12.2346 5.84177 12.2311C5.83106 17.2266 5.82036 22.2862 5.83106 23.2888C5.84534 24.8391 5.80608 26.5173 5.79538 28.0675C5.79538 28.2666 5.75255 28.4728 5.75612 28.6684C5.75612 28.7253 5.73828 28.8142 5.7133 28.9102C5.64906 29.1448 5.43851 29.312 5.19584 29.312C4.26799 29.3155 2.49794 29.3191 1.90911 29.312C1.56295 29.3048 0.99197 29.3048 0.64581 29.2835C0.238984 29.2586 0.0748256 29.0986 0.0248644 28.7004C0.0141585 28.5973 0.0141585 28.4871 0.0141585 28.384C0.0141585 27.5768 0.00702116 26.6417 0.0141585 25.8311C0.0105898 25.376 0.156905 2.00529 0.167611 1.55373C0.167611 1.49684 0.174748 1.39729 0.181885 1.28707C0.206866 0.949288 0.492358 0.686177 0.834949 0.689733C1.80919 0.703955 3.29018 0.7004 4.57133 0.703955C4.79615 0.703955 5.5884 0.703955 5.98095 1.45062C6.21648 1.89507 10.3454 11.7511 10.5167 11.7475C10.7487 11.7404 15.4129 1.47907 15.5057 1.15551C15.5378 1.04173 15.6056 0.938622 15.6913 0.863955C15.7127 0.842622 15.7376 0.824844 15.7626 0.807066C15.8697 0.7324 15.9982 0.689733 16.1373 0.689733C17.1116 0.703955 19.0244 0.7644 19.8737 0.703955C20.2092 0.679066 20.5196 0.7004 20.8265 0.8924C21.0799 1.04529 21.187 1.21951 21.1798 1.49684C21.162 2.11907 21.1049 21.2302 21.1263 23.2853" fill="#070303"/>
<path d="M42.6668 28.8532C42.624 29.1306 42.4598 29.287 42.1851 29.2977C41.6819 29.3155 25.8763 29.2977 25.7229 29.2977C25.1519 29.3439 25.2268 29.0524 25.2268 28.5332C25.1804 28.071 25.2232 1.1128 25.2447 1.02391C25.2946 0.807019 25.4195 0.693241 25.6336 0.689686C26.9112 0.675463 41.6069 0.679019 41.8068 0.700352C42.0637 0.728797 42.2279 0.856797 42.3064 1.13769C42.4099 1.51813 42.392 1.90213 42.4063 2.28613C42.4456 3.20346 42.4598 5.36169 42.2529 5.53235C42.0887 5.66391 41.9174 5.71013 41.6997 5.71013C40.4043 5.69591 31.8217 5.69946 31.4006 5.71724C31.2471 7.86124 31.4077 10.1048 31.3292 12.2275C31.4934 12.2346 31.6254 12.2488 31.7539 12.2488C32.9315 12.2488 40.1973 12.199 40.5542 12.2488C40.9753 12.3092 41.1894 12.5901 41.2394 13.0168C41.3607 14.0372 41.2929 16.5901 41.2465 16.839C41.1823 17.191 41.0003 17.3475 40.647 17.3688C40.233 17.3937 31.6718 17.4435 31.4149 17.4648L31.3078 24.0817C32.7139 23.9644 41.4642 24.1457 41.946 24.1564C42.392 24.167 42.6276 24.423 42.6311 24.871C42.6311 25.0701 42.6918 28.7252 42.6704 28.8532" fill="#070303"/>
<path d="M63.0973 22.7093C62.7619 25.2693 61.1096 27.6871 58.8257 28.8533C56.2562 30.1653 52.8125 30.0836 50.1824 28.992C48.1946 28.1671 46.6102 26.7413 45.5146 24.8853C45.1506 24.2702 44.833 23.6338 44.5832 22.9689C44.5047 22.7591 44.601 22.5245 44.8044 22.432L49.1403 20.5156C49.4258 20.384 49.7649 20.4978 49.9147 20.7751C50.7355 22.2898 52.1344 24.1529 53.9687 24.3769C55.9886 24.6258 57.516 23.04 56.8593 20.9742C56.349 19.3671 54.9108 18.6453 53.5904 17.7956C50.4643 15.7796 46.2033 13.1342 45.6538 9.05601C45.0364 4.45157 49.1189 0.394681 53.5155 0.0355694C55.5818 -0.131542 57.7908 0.359125 59.5751 1.47557C61.5271 2.69512 62.3586 4.28446 63.1009 6.35024C63.1794 6.56712 63.0652 6.80535 62.844 6.88001C61.6449 7.27824 59.6821 7.9289 58.7257 8.24535C58.4367 8.34135 58.1369 8.17424 58.0477 7.88624C57.7015 6.75201 56.6631 5.79912 55.5425 5.4009C54.3541 4.97779 52.7732 5.18757 51.9774 6.24001C51.1102 7.3849 51.5099 8.9209 52.3842 9.93068C53.2443 10.9227 54.4576 11.5271 55.5461 12.2347C58.4688 14.1333 61.9804 16.4516 62.9332 20.0213C63.1687 20.9067 63.2151 21.8205 63.0973 22.7165" fill="#070303"/>
<path d="M82.9176 5.12701C82.9176 5.57501 82.682 5.83101 82.2324 5.84168C81.7578 5.85234 78.157 6.03012 76.6296 5.9199V6.05146C76.6296 6.21857 76.6296 6.38568 76.6296 6.54923C76.6296 6.58834 76.6296 6.63101 76.6296 6.67368C76.5903 12.7999 76.494 28.0888 76.4833 28.4515C76.4833 28.5083 76.4761 28.6079 76.469 28.7181C76.444 29.0559 76.1585 29.319 75.8195 29.3155C74.8417 29.3012 72.6398 29.2408 71.7869 29.3012C71.4515 29.3261 71.1446 29.3048 70.8341 29.1128C70.5807 28.9599 70.4737 28.7857 70.4808 28.5083C70.4987 27.8861 70.5558 8.77501 70.5343 6.7199C70.5343 6.45679 70.5343 6.18657 70.5343 5.91634C69.007 6.02657 65.4026 5.84879 64.928 5.83812C64.4819 5.82746 64.2464 5.57146 64.2428 5.12346C64.2428 4.92435 64.1821 1.26568 64.2036 1.14123C64.2464 0.863901 64.4105 0.707456 64.6853 0.696789C65.0208 0.682567 67.8579 0.686123 72.1759 0.693234C72.7862 0.693234 73.4713 0.693234 74.0031 0.693234C74.3278 0.693234 74.6668 0.693234 74.9845 0.693234C79.3061 0.689678 82.1396 0.682567 82.4751 0.696789C82.7498 0.707456 82.914 0.863901 82.9568 1.14123C82.9782 1.26923 82.9176 4.9279 82.9176 5.12346" fill="#070303"/>
<path d="M111.945 14.6881C111.945 19.257 109.757 24.7681 105.91 27.4277C102.081 30.073 96.9638 30.5886 92.5993 29.0561C91.568 28.6935 90.6152 28.249 89.7408 27.7299C84.0738 24.3557 81.8149 17.881 83.4315 11.1468C84.3879 7.15389 86.5505 4.19567 90.0941 2.073C92.3031 0.750338 94.6513 0.0854492 97.4206 0.0854492C99.6795 0.0854492 101.938 0.625894 103.965 1.61789C106.424 2.82678 108.769 5.22678 110.079 7.61256C111.324 9.88456 111.945 11.9503 111.945 14.681M104.069 9.02767C101.268 5.36189 95.4971 4.76456 91.9177 7.66589C89.93 9.27656 88.7131 12.1637 88.7131 14.6917C88.7131 17.7566 89.6195 20.7397 92.139 22.6668C94.8262 24.7219 99.0871 25.1628 102.006 23.3317C106.674 20.4055 107.274 13.2197 104.065 9.02412" fill="#070303"/>
<path d="M16.0518 47.8399C15.7199 48.7893 15.1739 49.7137 14.5244 50.4817C13.9927 51.1111 13.1327 51.4346 12.3476 51.6622C11.5981 51.8791 10.9379 51.8506 10.1635 51.9502C9.71032 52.0071 9.2571 51.9502 8.80032 51.9715C7.94384 52.0071 7.91172 51.9928 6.18806 52.0035C5.72414 52.0035 5.25664 52.0106 4.79272 52.0142C4.8177 53.1342 4.77131 54.3573 4.78201 55.4808C4.79272 56.5653 4.76417 57.7386 4.75703 58.8266C4.75703 58.9653 4.78558 59.1039 4.78558 59.2391C4.78558 59.3386 4.78558 59.4453 4.74989 59.5377C4.66782 59.7795 4.1111 59.6657 4.03259 59.6657C3.80063 59.6622 2.29109 59.7084 1.77364 59.7013C1.53097 59.6977 1.2883 59.6906 1.0492 59.6764C0.763708 59.6622 0.649512 59.5484 0.613825 59.2675C0.606688 59.1928 0.606688 59.1182 0.606688 59.0435C0.606688 58.4782 0.59955 57.8239 0.606688 57.2551C0.610256 56.9386 0.642374 56.6257 0.65308 56.3093C0.678061 55.6977 0.603119 53.7351 0.617394 53.3653C0.631668 53.0204 0.645943 52.6791 0.649512 52.3342C0.65308 51.9822 0.649512 51.6302 0.645943 51.2782V50.9511C0.645943 50.9511 0.610256 46.0266 0.610256 45.4542C0.610256 45.0773 0.610256 44.7039 0.617394 44.3271C0.635237 43.2959 0.685198 42.2684 0.713747 41.2373C0.724453 40.9208 0.713747 40.5724 0.724453 40.2559C0.724453 40.2168 0.728022 40.1457 0.735159 40.0675C0.753003 39.8293 0.952847 39.6479 1.19195 39.6479C1.87356 39.6586 3.3153 39.7013 3.91126 39.6586C4.03616 39.6515 4.15393 39.6515 4.27169 39.6728C4.84625 39.6622 5.4208 39.6622 5.99535 39.6551C7.84748 39.6373 8.01878 39.6871 8.19721 39.6835C8.97875 39.6764 9.76385 39.6622 10.5454 39.6693C11.2056 39.6764 11.8622 39.7582 12.501 39.9395C13.0327 40.0924 13.5252 40.3306 13.9891 40.6222C15.3167 41.4577 15.9626 42.9902 16.2017 44.4515C16.3659 45.4506 16.4087 46.8408 16.0625 47.8257M12.4439 46.1795C12.5974 45.1662 12.1834 43.9111 11.1199 43.5946C10.6774 43.4631 10.0957 43.4524 9.63538 43.4453C9.1322 43.4346 8.62902 43.4524 8.12941 43.4524C6.98387 43.4524 5.73127 43.4488 4.5893 43.5093C4.57503 43.9466 4.61785 44.6257 4.5893 45.0595C4.51436 46.1546 4.64283 47.2106 4.66068 48.3022C5.65276 48.3519 6.65199 48.2951 7.09807 48.3022C8.06517 48.3093 9.04298 48.3662 10.0101 48.2808C10.9023 48.2026 11.6874 47.8222 12.1192 47.0968C12.2833 46.8231 12.3975 46.5173 12.4475 46.1831" fill="#070303"/>
<path d="M32.05 59.6977C31.6503 59.6977 28.6098 59.6906 28.1816 59.6977C27.9746 59.6977 27.9353 59.6443 27.8675 59.4701C27.7283 59.1146 24.4024 52.5937 24.0526 52.0034C23.9955 52.0034 22.7572 52.0141 22.1969 52.0177C22.2362 53.2408 22.1969 59.1039 22.1969 59.2426C22.1969 59.3421 22.1969 59.4488 22.1612 59.5412C22.0792 59.783 21.5225 59.6692 21.4439 59.6692C21.212 59.6657 18.8031 59.6941 18.5605 59.6799C18.275 59.6621 18.1608 59.5519 18.1251 59.271C18.118 59.1963 18.225 40.5866 18.2322 40.2701C18.2322 40.231 18.2357 40.1599 18.2429 40.0817C18.2607 39.8434 18.4606 39.6621 18.6997 39.6621C19.3813 39.6728 25.1161 39.6728 25.8976 39.6834C28.046 39.7083 30.0158 40.6257 31.0186 42.5706C31.8216 44.1314 31.9965 46.0941 31.4183 47.7403C30.8795 49.2763 29.6626 50.8194 28.046 51.2923C28.6205 52.4088 32.2106 58.791 32.3569 59.3599C32.4425 59.6977 32.3997 59.6977 32.0536 59.6977M27.9746 45.7386C27.9746 44.2523 27.2216 43.6159 26.4008 43.3812C25.7656 43.1999 24.9948 43.2852 24.3417 43.2674C23.9598 43.2568 22.9071 43.3172 22.1113 43.2852C22.0899 43.8363 22.0685 48.4017 22.0685 48.4657C23.0605 48.4906 24.0562 48.519 24.5023 48.519C27.3144 48.519 27.9746 47.8826 27.9746 45.735" fill="#070303"/>
<path d="M46.5245 59.3636C46.4924 59.5556 46.3782 59.6658 46.1855 59.6765C45.8322 59.6907 34.7694 59.6765 34.6623 59.6765C34.2626 59.7085 34.3162 59.5058 34.3162 59.1431C34.284 58.8196 34.3162 39.9467 34.3269 39.8862C34.3625 39.7334 34.4518 39.6551 34.5981 39.6551C35.4938 39.6445 45.7787 39.648 45.9178 39.6622C46.0963 39.6836 46.214 39.7725 46.2676 39.968C46.3425 40.2347 46.3282 40.5049 46.3389 40.7716C46.3675 41.4151 46.3782 42.9262 46.2319 43.0436C46.1177 43.136 45.9964 43.168 45.8465 43.168C44.94 43.1574 38.9304 43.1609 38.6378 43.1716C38.5307 44.672 38.6449 46.2436 38.5878 47.7298C38.702 47.7369 38.7948 47.744 38.884 47.744C39.7084 47.744 44.7973 47.7085 45.0435 47.744C45.3397 47.7867 45.486 47.9822 45.5217 48.2809C45.6038 48.9956 45.5574 50.784 45.5253 50.9547C45.4789 51.2 45.354 51.3102 45.1078 51.3245C44.8187 51.3422 38.8269 51.3742 38.6449 51.392L38.57 56.0213C39.5549 55.9396 45.6787 56.0676 46.0142 56.0747C46.3282 56.0818 46.4924 56.2596 46.4924 56.576C46.4924 56.7147 46.5352 59.2747 46.5209 59.3636" fill="#070303"/>
<path d="M75.0879 53.5146C74.2636 57.3439 72.2937 61.1448 68.7 63.0577C67.8222 63.527 66.8765 63.7759 65.8879 63.879C64.878 63.9857 58.458 64.0426 57.3196 63.9679C57.2161 63.9608 57.1091 63.943 57.0056 63.9146C56.8414 63.8648 56.7272 63.7582 56.7058 63.5804C56.6487 63.1466 56.5631 44.615 56.5274 43.3173C56.4845 41.7386 56.4738 40.1635 56.4417 38.5848C56.4239 37.7777 56.3918 36.967 56.3632 36.1599C56.3632 36.0817 56.3561 35.9999 56.3596 35.9217C56.3739 35.623 56.5095 35.4595 56.8022 35.3955C56.8414 35.3848 56.8807 35.3813 56.9199 35.3813C58.7042 35.4097 60.1924 35.3884 61.9767 35.3777C66.8301 35.3528 71.0304 37.0346 73.3357 41.4008C75.2342 44.9955 75.948 49.5324 75.0879 53.5182M68.2754 43.239C67.5581 41.9626 65.8094 40.6506 64.2642 40.4302C63.4006 40.3057 62.3407 40.2702 62.2015 40.2702L62.4192 59.0648C63.5398 59.0648 64.4462 59.1715 65.449 58.535C67.7222 57.0915 69.321 54.3644 69.6422 51.8364C69.9955 49.0488 69.6743 45.7315 68.2754 43.239Z" fill="#070303"/>
<path d="M95.8933 63.5201C95.8504 63.7974 95.6863 63.9539 95.4115 63.9645C94.9083 63.9823 79.1028 63.9645 78.9493 63.9645C78.3783 64.0108 78.4533 63.7192 78.4533 63.2001C78.4069 62.7379 78.4497 35.7797 78.4675 35.6908C78.5175 35.4739 78.6424 35.3601 78.8565 35.3601C80.1341 35.3459 94.8298 35.3494 95.0297 35.3708C95.2866 35.3992 95.4543 35.5272 95.5293 35.8081C95.6328 36.1885 95.6149 36.5725 95.6292 36.9565C95.6685 37.8739 95.6827 40.0321 95.4757 40.2028C95.3116 40.3343 95.1403 40.3805 94.9226 40.3805C93.6272 40.3663 85.0446 40.3699 84.6235 40.3877C84.47 42.5317 84.6306 44.7752 84.5521 46.8979C84.7162 46.905 84.8483 46.9192 84.9768 46.9192C86.1508 46.9192 93.4202 46.8694 93.7771 46.9192C94.1982 46.9797 94.4123 47.2605 94.4622 47.6872C94.58 48.7077 94.5158 51.2605 94.4694 51.5094C94.4051 51.8614 94.2231 52.0179 93.8699 52.0392C93.4559 52.0641 84.8947 52.1139 84.6413 52.1352L84.5342 58.7521C85.9403 58.6348 94.6906 58.8161 95.1724 58.8268C95.6185 58.8374 95.854 59.0934 95.8576 59.5414C95.8576 59.7405 95.9183 63.3957 95.8968 63.5237" fill="#070303"/>
<path d="M115.799 39.7903C115.799 40.2383 115.56 40.4943 115.114 40.505C114.639 40.5157 111.039 40.6935 109.511 40.5832V40.7148C109.511 40.8819 109.511 41.049 109.511 41.2126C109.511 41.2517 109.511 41.2943 109.511 41.337C109.472 47.4632 109.376 62.7521 109.365 63.1148C109.365 63.1717 109.358 63.2712 109.351 63.3814C109.329 63.7192 109.04 63.9823 108.701 63.9788C107.723 63.9646 105.521 63.9041 104.669 63.9646C104.333 63.9894 104.026 63.9681 103.716 63.7761C103.462 63.6232 103.355 63.449 103.362 63.1717C103.38 62.5494 103.437 43.4383 103.416 41.3832C103.416 41.1201 103.416 40.8499 103.416 40.5797C101.889 40.6899 98.2842 40.5121 97.8096 40.5015C97.3635 40.4908 97.128 40.2348 97.1244 39.7868C97.1244 39.5877 97.0637 35.929 97.0851 35.8046C97.128 35.5272 97.2921 35.3708 97.5669 35.3601C97.9024 35.3459 100.739 35.3495 105.058 35.3566C105.668 35.3566 106.353 35.3566 106.885 35.3566C107.213 35.3566 107.548 35.3566 107.866 35.3566C112.188 35.353 115.021 35.3459 115.357 35.3601C115.631 35.3708 115.796 35.5272 115.838 35.8046C115.86 35.9326 115.799 39.5912 115.799 39.7868" fill="#070303"/>
<path d="M123.946 57.9555C123.964 59.5057 123.921 61.1839 123.911 62.7341C123.911 62.9332 123.868 63.1395 123.871 63.335C123.871 63.3919 123.854 63.4808 123.829 63.5768C123.768 63.8115 123.554 63.9786 123.311 63.9786C122.383 63.9821 120.321 63.9857 119.732 63.9786C119.386 63.9715 118.815 63.9715 118.469 63.9501C118.062 63.9252 117.898 63.7652 117.848 63.367C117.837 63.2639 117.837 63.1572 117.837 63.0506C117.837 62.2435 117.83 61.3083 117.837 60.4977C117.844 60.0461 117.987 36.6755 118.001 36.2239C118.001 36.167 118.008 36.0675 118.015 35.9572C118.04 35.6159 118.326 35.3563 118.665 35.3599C119.639 35.3741 121.845 35.4346 122.697 35.3741C123.033 35.3492 123.34 35.3706 123.65 35.5626C123.904 35.7155 124.011 35.8897 124.004 36.167C123.986 36.7892 123.929 55.9003 123.95 57.9555" fill="#070303"/>
</g>
<defs>
<clipPath id="clip0_12_852">
<rect width="124" height="64" fill="white"/>
</clipPath>
</defs>
</svg>
