<svg width="16" height="16" viewBox="0 0 16 16" fill="none" xmlns="http://www.w3.org/2000/svg">
<path d="M12.077 4.00588C11.3588 3.53759 10.8404 2.78833 10.6787 1.91489C10.6438 1.72618 10.6246 1.53197 10.6246 1.33325H8.33232L8.32865 10.5199C8.29011 11.5486 7.44341 12.3743 6.40544 12.3743C6.08283 12.3743 5.77907 12.2937 5.51161 12.1529C4.89828 11.8302 4.47855 11.1873 4.47855 10.4475C4.47855 9.38492 5.343 8.52048 6.40544 8.52048C6.60377 8.52048 6.79403 8.5532 6.97399 8.60957V6.26941C6.78775 6.24405 6.59852 6.2282 6.40544 6.2282C4.07894 6.2282 2.18628 8.12096 2.18628 10.4475C2.18628 11.8749 2.89945 13.1381 3.98747 13.9019C4.67279 14.383 5.5064 14.6666 6.40544 14.6666C8.73193 14.6666 10.6246 12.7739 10.6246 10.4475V5.78903C11.5237 6.43433 12.6251 6.81459 13.8137 6.81459V4.52232C13.1735 4.52232 12.5771 4.33197 12.077 4.00588Z" fill="#070303"/>
</svg>
