<svg width="16" height="16" viewBox="0 0 16 16" fill="none" xmlns="http://www.w3.org/2000/svg">
<path d="M13.3016 5.28015C13.3097 5.39769 13.3097 5.51524 13.3097 5.63386C13.3097 9.24846 10.558 13.4172 5.52636 13.4172V13.415C4.04 13.4172 2.58452 12.9914 1.33325 12.1887C1.54938 12.2147 1.76659 12.2277 1.98435 12.2282C3.21611 12.2293 4.41268 11.816 5.38173 11.0549C4.21117 11.0327 3.1847 10.2695 2.82611 9.15529C3.23616 9.23438 3.65866 9.21813 4.06113 9.10817C2.78494 8.85033 1.8668 7.72906 1.8668 6.42688C1.8668 6.41496 1.8668 6.40358 1.8668 6.39221C2.24706 6.604 2.67281 6.72155 3.10832 6.73455C1.90634 5.93124 1.53584 4.33222 2.26168 3.08203C3.65054 4.79102 5.6997 5.82995 7.89944 5.93991C7.67898 4.98981 7.98015 3.99421 8.69083 3.32633C9.79259 2.29065 11.5254 2.34373 12.5611 3.44496C13.1737 3.32416 13.7609 3.09937 14.2982 2.78086C14.094 3.41408 13.6667 3.95196 13.0957 4.29376C13.6379 4.22984 14.1677 4.08467 14.6666 3.86313C14.2993 4.41347 13.8367 4.89285 13.3016 5.28015Z" fill="#070303"/>
</svg>
