<svg width="490" height="490" viewBox="0 0 490 490" fill="none" xmlns="http://www.w3.org/2000/svg">
<path fill-rule="evenodd" clip-rule="evenodd" d="M374.192 87.2409C370.514 46.187 350.061 13.0498 318.038 3.36887L318.045 3.34582C286.012 -6.33825 250.621 9.93293 224.814 42.102C193.184 15.6684 155.293 6.69838 125.797 22.4924L125.774 22.4862C96.2879 38.2742 82.7665 74.8146 87.2664 115.814C46.1998 119.485 13.0494 139.942 3.36561 171.974L3.34256 171.968C-6.34377 204.008 9.93407 239.408 42.1135 265.216C15.6825 296.852 6.71237 334.748 22.5082 364.228L22.4852 364.221C38.2846 393.707 74.8179 407.23 115.808 402.737C119.48 443.801 139.935 476.949 171.963 486.631L171.957 486.655C203.992 496.339 239.386 480.065 265.193 447.891C296.826 474.334 334.724 483.309 364.225 467.513C393.711 451.725 407.232 415.185 402.732 374.187C443.8 370.516 476.951 350.058 486.634 318.026L486.658 318.032C496.342 285.998 480.072 250.605 447.905 224.799C474.337 193.167 483.307 155.275 467.515 125.779L467.521 125.756C451.721 96.2681 415.184 82.7454 374.192 87.2409ZM245.003 244.988L244.989 244.995L244.997 245.012L245.018 245.018C245.013 245.008 245.008 244.998 245.003 244.988C245.003 244.988 245.002 244.988 245.003 244.988Z" fill="#F5F3EF"/>
</svg>
